<svg width="279" height="342" viewBox="0 0 279 342" fill="none" xmlns="http://www.w3.org/2000/svg">
<path d="M204.794 271.381L240.879 250.547C285.984 224.506 293.61 196.047 267.568 150.941L236.318 96.8149C210.276 51.7094 181.818 44.0839 136.712 70.1255L100.628 90.9589C55.5222 117.001 47.8966 145.459 73.9383 190.565L105.188 244.691C131.23 289.797 159.689 297.423 204.794 271.381Z" stroke="#003D99" stroke-opacity="0.04" stroke-width="5.5" stroke-linecap="round" stroke-linejoin="round"/>
<path d="M188.327 107.442L193.536 116.464C197.806 123.861 195.304 133.485 187.816 137.808L133.69 169.058C126.293 173.328 116.669 170.826 112.346 163.339L107.137 154.317C102.867 146.92 105.369 137.296 112.857 132.973L166.983 101.723C174.471 97.4003 184.004 99.9549 188.327 107.442Z" stroke="#003D99" stroke-opacity="0.04" stroke-width="5.5" stroke-linecap="round" stroke-linejoin="round"/>
<path d="M146.313 208.92L146.418 208.86" stroke="#003D99" stroke-opacity="0.04" stroke-width="9" stroke-linecap="round" stroke-linejoin="round"/>
<path d="M181.127 188.82L181.231 188.76" stroke="#003D99" stroke-opacity="0.04" stroke-width="9" stroke-linecap="round" stroke-linejoin="round"/>
<path d="M215.94 168.721L216.044 168.661" stroke="#003D99" stroke-opacity="0.04" stroke-width="9" stroke-linecap="round" stroke-linejoin="round"/>
<path d="M164.543 240.494L164.647 240.433" stroke="#003D99" stroke-opacity="0.04" stroke-width="9" stroke-linecap="round" stroke-linejoin="round"/>
<path d="M199.356 220.394L199.46 220.334" stroke="#003D99" stroke-opacity="0.04" stroke-width="9" stroke-linecap="round" stroke-linejoin="round"/>
<path d="M234.169 200.295L234.274 200.234" stroke="#003D99" stroke-opacity="0.04" stroke-width="9" stroke-linecap="round" stroke-linejoin="round"/>
</svg>
